<svg version="1" xmlns="http://www.w3.org/2000/svg" width="933.333" height="933.333" viewBox="0 0 700.000000 700.000000"><path d="M325.5.6c-1.6.2-7.9.9-14 1.5-48.2 4.8-100.2 22.4-142.8 48.3C46.2 124.9-18.7 265.9 4.5 406.6c14.3 86.3 58.6 161.9 126.9 216.7 51.5 41.4 112 66.5 180.1 74.9 14.6 1.7 62.4 1.7 77 0 98.1-12 183-60.5 241.2-137.7 36.9-48.9 59.6-105.1 68-168 2.2-16.6 2.5-64.5.5-81-10-81.5-44.2-152.5-100.7-209C542 46.9 472.4 12.9 392.8 2.4 381.2.9 332.9-.4 325.5.6zm137.1 403.5c18.2 3.3 34.2 18.1 39 36.3 1.6 6 1.8 18.2.3 24.5-2.3 10-8.4 19.7-16.7 26.3l-4.7 3.8H425l-6.5-6.3c-11.5-11.4-17-27.2-14.6-42.7 4.2-28.1 30.7-47 58.7-41.9z"/></svg>